<svg width="16" height="16" viewBox="0 0 16 16" fill="none" xmlns="http://www.w3.org/2000/svg">
<g id="video_library" clip-path="url(#clip0_136_342)">
<path id="Vector" d="M2.66666 4.00004H1.33333V13.3334C1.33333 14.0667 1.93333 14.6667 2.66666 14.6667H12V13.3334H2.66666V4.00004ZM13.3333 1.33337H5.33333C4.59999 1.33337 3.99999 1.93337 3.99999 2.66671V10.6667C3.99999 11.4 4.59999 12 5.33333 12H13.3333C14.0667 12 14.6667 11.4 14.6667 10.6667V2.66671C14.6667 1.93337 14.0667 1.33337 13.3333 1.33337ZM13.3333 10.6667H5.33333V2.66671H13.3333V10.6667ZM8 3.66671V9.66671L12 6.66671L8 3.66671Z" fill="#E1C586"/>
</g>
<defs>
<clipPath id="clip0_136_342">
<rect width="16" height="16" fill="white"/>
</clipPath>
</defs>
</svg>
