<svg width="18" height="14" viewBox="0 0 18 14" fill="none" xmlns="http://www.w3.org/2000/svg">
<path d="M17.3333 1.83339C16.7069 2.10513 16.0445 2.28477 15.3667 2.36672C16.0818 1.93949 16.6177 1.26737 16.875 0.475053C16.203 0.875105 15.4673 1.15697 14.7 1.30839C14.1871 0.752196 13.5041 0.381966 12.7582 0.255762C12.0122 0.129558 11.2454 0.254518 10.5781 0.611044C9.91085 0.96757 9.38077 1.5355 9.07102 2.22575C8.76128 2.916 8.6894 3.68954 8.86666 4.42505C7.50785 4.35632 6.17869 4.00251 4.96554 3.3866C3.75238 2.77069 2.68236 1.90646 1.82499 0.850052C1.52427 1.37519 1.36626 1.9699 1.36666 2.57505C1.36559 3.13704 1.5035 3.69057 1.76812 4.18636C2.03273 4.68215 2.41584 5.10481 2.88332 5.41672C2.33997 5.40194 1.80823 5.25613 1.33332 4.99172V5.03339C1.3374 5.82079 1.61332 6.58263 2.11442 7.19002C2.61552 7.79742 3.31104 8.21309 4.08332 8.36672C3.78604 8.45719 3.47739 8.50489 3.16666 8.50839C2.95157 8.50587 2.73701 8.48637 2.52499 8.45005C2.74491 9.1274 3.17051 9.71934 3.74255 10.1435C4.3146 10.5677 5.00464 10.803 5.71666 10.8167C4.51433 11.7628 3.02989 12.2791 1.49999 12.2834C1.22144 12.2843 0.943103 12.2676 0.666656 12.2334C2.22868 13.2419 4.049 13.7773 5.90832 13.7751C7.1914 13.7884 8.46427 13.5459 9.65259 13.0618C10.8409 12.5777 11.9208 11.8616 12.8293 10.9555C13.7378 10.0493 14.4566 8.97121 14.9438 7.78414C15.4309 6.59707 15.6767 5.32483 15.6667 4.04172C15.6667 3.90005 15.6667 3.75005 15.6667 3.60005C16.3206 3.11239 16.8846 2.51457 17.3333 1.83339V1.83339Z" fill="#D5E9EF"/>
</svg>
