<svg width="20" height="20" fill="none" xmlns="http://www.w3.org/2000/svg"><g id="check rectangle"><path id="Vector 279" d="M4 0h12a4 4 0 0 1 4 4v12a4 4 0 0 1-4 4H4a4 4 0 0 1-4-4V4a4 4 0 0 1 4-4Z" fill="#F1F8FC"/><path id="Vector 1265 (Stroke)" fill-rule="evenodd" clip-rule="evenodd" d="M14.46 6.408a.75.75 0 0 1 .132 1.052l-4.007 5.152a1.75 1.75 0 0 1-2.552.227l-2.535-2.282a.75.75 0 1 1 1.004-1.114l2.534 2.28a.25.25 0 0 0 .365-.032l4.007-5.151a.75.75 0 0 1 1.053-.132Z" fill="#1194BE"/></g></svg>