<svg width="9" height="8" viewBox="0 0 9 8" fill="none" xmlns="http://www.w3.org/2000/svg">
<path d="M8.48918 0.183542C8.25255 -0.0530905 7.8703 -0.0530905 7.63366 0.183542L4.66666 3.14448L1.69965 0.177474C1.46302 -0.0591581 1.08076 -0.0591581 0.844131 0.177474C0.607498 0.414107 0.607498 0.79636 0.844131 1.03299L3.81114 4L0.844131 6.96701C0.607498 7.20364 0.607498 7.58589 0.844131 7.82253C1.08076 8.05916 1.46302 8.05916 1.69965 7.82253L4.66666 4.85552L7.63366 7.82253C7.8703 8.05916 8.25255 8.05916 8.48918 7.82253C8.72581 7.58589 8.72581 7.20364 8.48918 6.96701L5.52217 4L8.48918 1.03299C8.71975 0.802427 8.71975 0.414107 8.48918 0.183542V0.183542Z" fill="#1194BE"></path>
</svg>
